<svg width="114" height="77" viewBox="0 0 114 77" fill="none" xmlns="http://www.w3.org/2000/svg">
<ellipse cx="39.7273" cy="40.6629" rx="36.2727" ry="36.3371" fill="#272728"/>
<path d="M50.1463 57.286C46.4999 59.5804 42.2009 60.6072 37.914 60.2079C33.6272 59.8086 29.5905 58.0054 26.4285 55.0766C23.2665 52.1477 21.1553 48.2562 20.4223 44.0037C19.6893 39.7511 20.3753 35.3752 22.3741 31.5529C24.3729 27.7306 27.5727 24.6753 31.4781 22.8587C35.3834 21.0422 39.7771 20.5653 43.9799 21.5017C48.1827 22.4381 51.961 24.7357 54.7303 28.04C57.4996 31.3444 59.1054 35.4713 59.2986 39.7825" stroke="white" stroke-width="4" stroke-linecap="round"/>
<path d="M58.3947 46.4232C57.6992 48.4874 56.6595 50.4308 55.3177 52.1724" stroke="white" stroke-width="4" stroke-linecap="round"/>
<path fill-rule="evenodd" clip-rule="evenodd" d="M63.6582 27.9166C62.0821 25.6177 63.7291 22.4944 66.5174 22.4944L107.073 22.4944C109.862 22.4944 111.509 25.6177 109.933 27.9166L90.0185 56.9648C89.8005 57.2828 89.6839 57.6583 89.6839 58.0426V72.7251L96.7373 72.7251C98.4011 72.7251 99.75 73.682 99.75 74.8625C99.75 76.043 98.4011 77 96.7373 77H76.8536C75.1897 77 73.8409 76.043 73.8409 74.8625C73.8409 73.682 75.1897 72.7251 76.8536 72.7251L83.9071 72.7251V58.043C83.9071 57.6587 83.7906 57.2832 83.5726 56.9651L63.6582 27.9166ZM94.5505 38.433C95.3127 38.433 96.0259 38.0573 96.4567 37.4289L101.45 30.0754C101.975 29.3091 101.426 28.268 100.497 28.268L71.9979 28.268C71.5331 28.268 71.2586 28.7886 71.5213 29.1717L77.5862 37.4289C78.017 38.0573 78.7302 38.433 79.4924 38.433L94.5505 38.433Z" fill="#FD693A"/>
<path d="M94.5507 38.433C95.3129 38.433 96.0261 38.0573 96.4569 37.4289L101.45 30.0754C101.976 29.3091 101.427 28.268 100.497 28.268L71.9981 28.268C71.5334 28.268 71.2589 28.7886 71.5216 29.1717L77.5865 37.4289C78.0173 38.0573 78.7304 38.433 79.4926 38.433L94.5507 38.433Z" fill="#F8F8FA"/>
</svg>
