<svg width="98" height="81" viewBox="0 0 98 81" fill="none" xmlns="http://www.w3.org/2000/svg">
<path d="M36.9028 18.5388L41.7415 5.1819C41.938 4.63956 42.6649 4.53782 43.0022 5.00699C44.6359 7.27809 48.1659 12.8994 48.1638 19.0735C48.1621 23.2867 45.7826 32.2797 44.0504 38.2755L36.9028 18.5388Z" fill="#FD693A"/>
<path fill-rule="evenodd" clip-rule="evenodd" d="M47.5785 58.549C48.154 58.4252 48.7474 58.351 49.3596 58.351C53.9796 58.351 57.7382 62.0658 57.7382 66.6305C57.7382 71.1952 53.9793 74.9102 49.3594 74.9102C44.74 74.9102 40.9812 71.1952 40.9812 66.6305C40.9812 64.4012 41.8873 62.3826 43.3429 60.8931L39.7794 51.0513C38.6258 47.7366 35.5285 45.8343 32.4689 44.8987L30.2103 51.0502L26.6468 60.8891C28.1046 62.3792 29.0119 64.3988 29.0119 66.6303C29.0119 71.1951 25.2525 74.91 20.6332 74.91C16.0138 74.91 12.2544 71.1951 12.2544 66.6303C12.2544 62.0656 16.0138 58.3507 20.6332 58.3507C21.2444 58.3507 21.8366 58.4243 22.4111 58.5476L26.3385 47.7059L27.6875 44.0791C27.273 42.7684 21.8313 25.4409 21.8302 19.0728C21.8285 12.8988 25.3585 7.27741 26.9928 5.00631C27.3312 4.53714 28.057 4.63889 28.2535 5.18122L47.5785 58.549ZM32.6023 39.4262C32.6023 40.7331 33.6743 41.7919 34.9963 41.7919C36.3183 41.7919 37.3898 40.7325 37.3903 39.4262C37.3903 38.1193 36.3183 37.0605 34.9963 37.0605C33.6737 37.0605 32.6023 38.1199 32.6023 39.4262ZM45.769 66.6307C45.769 68.5871 47.3797 70.1789 49.3596 70.1789C51.3395 70.1789 52.9509 68.5872 52.9503 66.6307C52.9503 64.6743 51.3396 63.0824 49.3596 63.0824C47.3798 63.0824 45.769 64.6743 45.769 66.6307ZM20.6332 70.1789C18.6532 70.1789 17.0425 68.5871 17.0425 66.6307C17.0425 64.6743 18.6534 63.0824 20.6332 63.0824C22.613 63.0824 24.2239 64.6743 24.2239 66.6307C24.2239 68.5871 22.613 70.1789 20.6332 70.1789Z" fill="black"/>
<path d="M84.0712 11.0391V67.813C84.0712 71.7326 80.8562 74.9095 76.8898 74.9095L63.2443 74.91C62.848 74.91 62.5262 74.5921 62.5262 74.2005V70.8887C62.5262 70.4971 62.848 70.1791 63.2443 70.1791L74.4957 70.1786V67.2216H63.2443C62.848 67.2216 62.5262 66.9037 62.5262 66.5121V64.3829C62.5262 63.9913 62.848 63.6733 63.2443 63.6733H74.4957V60.1251H63.2443C62.848 60.1251 62.5262 59.8072 62.5262 59.4156V57.2864C62.5262 56.8948 62.848 56.5769 63.2443 56.5769H74.4957V53.0286H63.2443C62.848 53.0286 62.5262 52.7107 62.5262 52.3191V50.1899C62.5262 49.7983 62.848 49.4804 63.2443 49.4804L74.4957 49.4798V45.9316H63.2443C62.848 45.9316 62.5262 45.6137 62.5262 45.222V43.0929C62.5262 42.7013 62.848 42.3833 63.2443 42.3833H74.4957V38.8351H63.2443C62.848 38.8351 62.5262 38.5172 62.5262 38.1256V35.9964C62.5262 35.6048 62.848 35.2868 63.2443 35.2868H74.4957V31.7386L63.2443 31.7381C62.848 31.7381 62.5262 31.4202 62.5262 31.0285V28.8994C62.5262 28.5077 62.848 28.1898 63.2443 28.1898H74.4957V24.6416H63.2443C62.848 24.6416 62.5262 24.3237 62.5262 23.932V21.8029C62.5262 21.4113 62.848 21.0933 63.2443 21.0933H74.4957V17.5451H63.2443C62.848 17.5451 62.5262 17.2272 62.5262 16.8355V14.7064C62.5262 14.3148 62.848 13.9968 63.2443 13.9968L74.4957 13.9963V11.0393H63.2443C62.848 11.0393 62.5262 10.7214 62.5262 10.3298V7.01795C62.5262 6.62633 62.848 6.3084 63.2443 6.3084H79.2834C81.9279 6.3084 84.0714 8.42602 84.0714 11.0393L84.0712 11.0391Z" fill="black"/>
</svg>
