<svg width="74" height="76" viewBox="0 0 74 76" fill="none" xmlns="http://www.w3.org/2000/svg">
<path d="M11.9549 68.9967H62.4522C65.8096 68.9967 68.6073 66.1947 68.6073 62.8314V12.2498C68.6073 8.74694 65.8099 5.94489 62.4522 5.94489H50.0027V26.2613C50.0027 29.4837 47.3447 32.1462 44.1277 32.1462C43.0085 32.1462 41.8894 31.8657 41.0503 31.3056L37.2732 28.9238L33.4962 31.3056C32.5165 31.8657 31.3983 32.1462 30.4188 32.1462C27.0614 32.1462 24.4043 29.4837 24.4043 26.2613V6.0845H11.9549C8.59744 6.0845 5.7998 8.88656 5.7998 12.3894V62.971C5.7998 66.1934 8.45781 68.9965 11.9549 68.9965V68.9967Z" fill="black"/>
<path d="M31.1187 27.8029L37.1331 24.0195L43.1476 27.8029C44.2667 28.5036 45.8056 27.6631 45.8056 26.4013L45.8065 6.08485H28.6013V26.4013C28.6013 27.6621 30.0006 28.5036 31.1187 27.8029Z" fill="#FD693A"/>
<path d="M19.425 52.8293L40.7 52.8293" stroke="#F8F8FA" stroke-width="4" stroke-linecap="round"/>
<path d="M54.575 52.8293H48.1" stroke="#F8F8FA" stroke-width="4" stroke-linecap="round"/>
</svg>
