<svg width="122" height="97" viewBox="0 0 122 97" fill="none" xmlns="http://www.w3.org/2000/svg">
<path d="M31.4386 38.5187C31.4386 34.292 34.9534 30.834 39.2496 30.834H49.7941C54.0902 30.834 57.6051 34.292 57.6051 38.5187L57.6044 46.4579H64.4387V38.6146C64.4387 34.3879 67.9535 30.9299 72.2496 30.9299H82.7942C87.0903 30.9299 90.6052 34.3879 90.6052 38.6146V46.4579H98.1232V21.997C98.1232 19.6914 96.268 17.8669 93.9253 17.8669C91.5819 17.8669 89.7273 19.6921 89.7273 21.997V23.1494L32.3163 23.1501V21.9976C32.3163 19.6921 30.461 17.8675 28.1183 17.8675C25.7749 17.8669 23.9197 19.7878 23.9197 21.9969L23.9197 46.4579H31.4377L31.4386 38.5187Z" fill="black"/>
<path d="M39.2494 34.8685C37.1987 34.8685 35.4417 36.5014 35.4417 38.6147V42.8842H53.5041V38.6141C53.5041 36.5965 51.8444 34.8679 49.6963 34.8679L39.2494 34.8685Z" fill="black"/>
<path d="M72.2499 34.8685C70.1992 34.8685 68.4421 36.5014 68.4421 38.6147V42.8842H86.5046V38.6141C86.5046 36.5965 84.8449 34.8679 82.6968 34.8679L72.2499 34.8685Z" fill="black"/>
<path d="M99.2947 46.1072H22.749C18.2574 46.1072 14.6453 49.6611 14.6453 54.0799V60.3232H107.398V54.0799C107.398 49.6609 103.786 46.1072 99.2947 46.1072Z" fill="black"/>
<path d="M14.6453 76.461C14.6453 77.4219 15.4265 78.1897 16.4024 78.1897H21.6743C22.3581 78.1897 22.9438 77.8058 23.2366 77.2289L25.873 71.6576H96.1701L98.8064 77.2289C99.0992 77.8051 99.6849 78.1897 100.369 78.1897H105.641C106.617 78.1897 107.398 77.4212 107.398 76.461L107.398 64.1651H14.6453L14.6453 76.461Z" fill="#FD693A"/>
</svg>
