<svg width="24" height="24" viewBox="0 0 24 24" fill="none" xmlns="http://www.w3.org/2000/svg">
<path d="M4.87246 4H19.1265C19.2843 3.99998 19.4398 4.0373 19.5804 4.1089C19.721 4.18051 19.8427 4.28437 19.9355 4.412L23.7585 9.668C23.8264 9.76152 23.8599 9.8757 23.8531 9.99112C23.8464 10.1065 23.7999 10.216 23.7215 10.301L12.3665 22.602C12.3197 22.6526 12.2629 22.693 12.1997 22.7206C12.1366 22.7482 12.0684 22.7624 11.9995 22.7624C11.9305 22.7624 11.8624 22.7482 11.7992 22.7206C11.736 22.693 11.6793 22.6526 11.6325 22.602L0.277464 10.302C0.198815 10.217 0.152129 10.1073 0.145381 9.99163C0.138633 9.876 0.172241 9.76161 0.240464 9.668L4.06346 4.412C4.15624 4.28437 4.27791 4.18051 4.41851 4.1089C4.55912 4.0373 4.71467 3.99998 4.87246 4Z" fill="#FD693A"/>
</svg>
