<svg width="24" height="24" viewBox="0 0 24 24" fill="none" xmlns="http://www.w3.org/2000/svg">
<path fill-rule="evenodd" clip-rule="evenodd" d="M1.00421 1.00421C1.64719 0.361223 2.51926 0 3.42857 0H20.5714C21.4807 0 22.3528 0.361223 22.9958 1.00421C23.6388 1.64719 24 2.51926 24 3.42857V20.5714C24 21.4807 23.6388 22.3528 22.9958 22.9958C22.3528 23.6388 21.4807 24 20.5714 24H15.2318V16.5643H18.1674L18.7262 12.8622H15.2318V10.4583C15.2318 9.44564 15.72 8.45827 17.2854 8.45827H18.8741V5.30818C18.8741 5.30818 17.4322 5.05824 16.0533 5.05824C13.1741 5.05824 11.2942 6.83107 11.2942 10.0405V12.8622H8.0934V16.5643H11.2942V24H3.42857C2.51926 24 1.64719 23.6388 1.00421 22.9958C0.361223 22.3528 0 21.4807 0 20.5714V3.42857C0 2.51926 0.361223 1.64719 1.00421 1.00421Z" fill="#1D1D1E"/>
</svg>
