<svg width="25" height="24" viewBox="0 0 25 24" fill="none" xmlns="http://www.w3.org/2000/svg">
<path d="M22.3668 11.9999C22.5568 11.6299 22.6668 11.21 22.6668 10.78C22.6668 9.35997 21.5068 8.20996 20.0768 8.20996H17.5068C18.2268 5.36996 17.7568 3.45995 16.1068 2.50995C15.7168 2.28995 14.3968 1.73995 13.4368 2.13995C13.0168 2.31995 12.7268 2.65996 12.6068 3.14996C12.3068 4.35996 12.0168 5.49993 11.3468 6.48993C11.0068 6.97993 10.5368 7.54995 9.98682 7.88995V9.54993V9.68994V18.27V18.9299V19.84L11.3468 20.2899C12.1068 20.5499 12.9068 20.6799 13.7168 20.6799H18.8468C20.2768 20.6799 21.4468 19.5199 21.4468 18.0999C21.4468 18.0199 21.4468 17.9399 21.4368 17.8599C22.1868 17.3899 22.6668 16.5699 22.6668 15.6599C22.6668 15.2299 22.5568 14.8099 22.3668 14.4399C22.5568 14.0699 22.6668 13.6499 22.6668 13.2199C22.6668 12.7899 22.5568 12.3699 22.3668 11.9999Z" fill="#FD693A"/>
<path d="M3.41675 6.61987C3.00675 6.61987 2.66675 6.95988 2.66675 7.37988V20.2499C2.66675 20.6599 3.00675 20.9999 3.41675 20.9999H6.91675C7.49675 20.9999 8.02675 20.8399 8.48675 20.5599V18.9299V9.68988V7.05988C8.02675 6.77988 7.49675 6.61987 6.91675 6.61987H3.41675Z" fill="#FD693A"/>
</svg>
