<svg width="24" height="24" viewBox="0 0 24 24" fill="none" xmlns="http://www.w3.org/2000/svg">
<path fill-rule="evenodd" clip-rule="evenodd" d="M12 20.5C14.2543 20.5 16.4163 19.6045 18.0104 18.0104C19.6045 16.4163 20.5 14.2543 20.5 12C20.5 9.74566 19.6045 7.58365 18.0104 5.98959C16.4163 4.39553 14.2543 3.5 12 3.5C9.74566 3.5 7.58365 4.39553 5.98959 5.98959C4.39553 7.58365 3.5 9.74566 3.5 12C3.5 14.2543 4.39553 16.4163 5.98959 18.0104C7.58365 19.6045 9.74566 20.5 12 20.5ZM12 22C17.523 22 22 17.523 22 12C22 6.477 17.523 2 12 2C6.477 2 2 6.477 2 12C2 17.523 6.477 22 12 22Z" fill="#1D1D1E"/>
<path fill-rule="evenodd" clip-rule="evenodd" d="M10.564 5.486C9.927 7.078 9.5 9.381 9.5 12C9.5 14.62 9.927 16.922 10.564 18.514C10.884 19.314 11.228 19.861 11.533 20.184C11.833 20.5 11.991 20.5 12 20.5C12.009 20.5 12.167 20.5 12.467 20.183C12.772 19.861 13.116 19.314 13.436 18.514C14.073 16.922 14.5 14.619 14.5 12C14.5 9.38 14.073 7.078 13.436 5.486C13.116 4.686 12.772 4.139 12.467 3.816C12.167 3.5 12.009 3.5 12 3.5C11.991 3.5 11.833 3.5 11.533 3.817C11.228 4.139 10.884 4.686 10.564 5.486ZM12 2C9.79 2 8 6.477 8 12C8 17.523 9.79 22 12 22C14.21 22 16 17.523 16 12C16 6.477 14.21 2 12 2Z" fill="#1D1D1E"/>
<path fill-rule="evenodd" clip-rule="evenodd" d="M2 11H21V12.5H2V11Z" fill="#1D1D1E"/>
</svg>
