<svg width="24" height="24" viewBox="0 0 24 24" fill="none" xmlns="http://www.w3.org/2000/svg">
<path fill-rule="evenodd" clip-rule="evenodd" d="M3.42857 0C2.51926 0 1.64719 0.361224 1.00421 1.00421C0.361224 1.64719 0 2.51926 0 3.42857V20.5714C0 21.4807 0.361224 22.3528 1.00421 22.9958C1.64719 23.6388 2.51926 24 3.42857 24H20.5714C21.4807 24 22.3528 23.6388 22.9958 22.9958C23.6388 22.3528 24 21.4807 24 20.5714V3.42857C24 2.51926 23.6388 1.64719 22.9958 1.00421C22.3528 0.361224 21.4807 0 20.5714 0H3.42857ZM5.31771 7.36629C5.86103 7.36629 6.38209 7.15045 6.76627 6.76627C7.15045 6.38209 7.36629 5.86103 7.36629 5.31771C7.36629 4.7744 7.15045 4.25334 6.76627 3.86916C6.38209 3.48497 5.86103 3.26914 5.31771 3.26914C4.7744 3.26914 4.25334 3.48497 3.86916 3.86916C3.48497 4.25334 3.26914 4.7744 3.26914 5.31771C3.26914 5.86103 3.48497 6.38209 3.86916 6.76627C4.25334 7.15045 4.7744 7.36629 5.31771 7.36629ZM7.032 20.2509V8.97257H3.60343V20.2509H7.032ZM9.30857 8.97257H12.7371V10.4829C13.2429 9.69086 14.3537 8.62457 16.4194 8.62457C18.8846 8.62457 20.2234 10.2583 20.2234 13.3663C20.2234 13.5154 20.2371 14.196 20.2371 14.196V20.2491H16.8086V14.1977C16.8086 13.3663 16.6337 11.7326 14.7857 11.7326C12.936 11.7326 12.78 13.7863 12.7371 15.1303V20.2491H9.30857V8.97257Z" fill="#1D1D1E"/>
</svg>
